<svg width="128" height="128" viewBox="0 0 128 128" fill="none" xmlns="http://www.w3.org/2000/svg">
<rect width="128" height="128" rx="6" fill="#303031"/>
<path d="M29.9343 71.1934C29.4865 74.0737 29.3906 76.0147 29.6465 77.0166C29.9024 77.9558 30.766 78.488 32.2374 78.6133L42.2172 79.6464L41.5455 85H7L7.67172 79.7403L10.9343 79.4586C11.766 79.3333 12.4057 79.1455 12.8535 78.895C13.3653 78.582 13.7811 78.1436 14.101 77.5801C14.4209 77.0166 14.6768 76.2965 14.8687 75.4199C15.1246 74.4807 15.3485 73.2597 15.5404 71.7569L21.298 30.2431C21.6818 27.488 21.7138 25.5783 21.3939 24.5138C21.0741 23.4494 20.1145 22.8232 18.5152 22.6354L15.6364 22.2597L16.3081 17H64L62.3687 35.6906L54.1162 35.3149L53.1566 28.8343C52.8367 27.081 52.2609 25.86 51.4293 25.1713C50.6616 24.4825 49.3502 24.1381 47.4949 24.1381H36.5556L33.2929 47.6188H54.2121L53.2525 55.1326H32.1414L29.9343 71.1934Z" fill="#CE9268"/>
<path d="M82.0325 84.6298L71.031 59.768C69.9833 57.2818 69.1285 55.5967 68.4667 54.7127C67.8601 53.7735 67.0054 53.1934 65.9025 52.9724L64 52.6409L64.6618 48H89.1462L88.4845 52.6409L82.1152 53.4696L91.4623 76.5083H91.7932L106.269 53.3867L100.479 52.6409L101.14 48H120L119.338 52.6409L117.188 52.8066C116.471 52.9171 115.837 53.1105 115.285 53.3867C114.789 53.663 114.32 54.0497 113.879 54.547C113.438 54.989 112.969 55.5691 112.473 56.2873C112.031 57.0055 111.508 57.8619 110.901 58.8564L94.6056 83.7182L92.7031 97.8066C92.4274 99.5746 92.3998 100.818 92.6204 101.536C92.8961 102.199 93.5578 102.586 94.6056 102.696L101.637 103.359L101.058 108H69.2939L69.7902 103.359L76.7385 102.696C77.676 102.586 78.4205 102.171 78.9719 101.453C79.5785 100.68 80.0197 99.3812 80.2954 97.558L82.0325 84.6298Z" fill="#CE9268"/>
</svg>
