<svg width="25" height="15" viewBox="0 0 25 15" fill="none" xmlns="http://www.w3.org/2000/svg">
<path d="M22.5 4.97256e-08H8.0181C7.68974 -6.54544e-05 7.36459 0.0645866 7.06123 0.19026C6.75788 0.315934 6.48226 0.500166 6.25015 0.732422L0.366208 6.61602C-0.122069 7.1043 -0.122069 7.8957 0.366208 8.38359L6.25015 14.2676C6.71889 14.7363 7.35483 15 8.01771 15H22.5C23.8809 15 25 13.8809 25 12.5V2.5C25 1.11914 23.8809 4.97256e-08 22.5 4.97256e-08ZM19.1918 9.92422C19.436 10.1684 19.436 10.5641 19.1918 10.8082L18.3083 11.6918C18.0641 11.9359 17.6684 11.9359 17.4243 11.6918L15.0001 9.26758L12.5759 11.6918C12.3317 11.9359 11.936 11.9359 11.6919 11.6918L10.8083 10.8082C10.5642 10.5641 10.5642 10.1684 10.8083 9.92422L13.2325 7.5L10.8083 5.07578C10.5642 4.83164 10.5642 4.43594 10.8083 4.1918L11.6919 3.3082C11.936 3.06406 12.3317 3.06406 12.5759 3.3082L15.0001 5.73242L17.4243 3.3082C17.6684 3.06406 18.0641 3.06406 18.3083 3.3082L19.1918 4.1918C19.436 4.43594 19.436 4.83164 19.1918 5.07578L16.7676 7.5L19.1918 9.92422Z" fill="white"/>
</svg>
