<svg width="54" height="48" viewBox="0 0 54 48" fill="none" xmlns="http://www.w3.org/2000/svg">
<g clip-path="url(#clip0_57_915)">
<path d="M52.4801 14.4687C52.1547 15.3318 51.5995 16.0742 50.9965 16.8445C51.7623 17.0394 52.4035 17.3457 52.9491 17.8561C53.9924 18.8213 54.337 20.7703 52.8725 21.7633C51.6761 22.5708 50.384 23.1183 49.0153 23.5452C48.2591 23.7773 47.4838 23.9907 46.7085 24.1578C45.9524 24.3155 45.1771 24.4083 44.3731 24.5383C44.6124 25.6056 44.8708 26.6728 45.1005 27.7401C45.7418 30.6543 46.1534 33.5963 46.297 36.5754C46.3161 37.0023 46.2874 37.4385 46.3065 37.8747C46.3161 38.1346 46.2395 38.2552 45.962 38.3295C44.9665 38.58 44.9953 38.5893 44.8613 39.5638C44.756 40.3155 44.5933 41.0487 44.4497 41.7912C44.3731 42.1717 44.153 42.4687 43.8563 42.7193C43.416 43.0719 42.9661 43.0534 42.5928 42.6357C42.277 42.2923 41.8941 42.0046 41.6357 41.6056C41.4921 41.3921 41.3677 41.3457 41.2337 41.6612C40.7168 42.8121 39.9415 43.8144 39.2045 44.8445C39.128 44.9559 38.994 45.0302 38.8887 45.1322C38.0943 45.8561 38.0177 45.8376 37.3955 44.9745C36.9265 44.3248 36.4097 43.703 35.8833 43.0255C35.3473 43.9443 34.7921 44.7889 34.0647 45.5035C34.0073 45.5592 33.969 45.6334 33.902 45.6705C33.5383 45.884 33.2607 46.4315 32.8587 46.3109C32.3227 46.1531 31.9877 45.6148 31.6335 45.1786C31.4038 44.8909 31.2124 44.5568 31.0306 44.232C30.8487 43.9072 30.7147 43.8515 30.4371 44.1856C29.4991 45.3179 28.5994 46.4687 27.5083 47.471C27.4126 47.5545 27.3168 47.638 27.1924 47.7401C26.8861 48.1392 26.6756 48 26.4267 47.703C25.4696 46.5708 24.4358 45.4942 23.517 44.3341C23.0958 43.8051 23.0767 43.8237 22.7226 44.3991C22.4641 44.8074 22.2153 45.2251 21.9186 45.6056C21.4783 46.181 20.8944 46.4501 20.234 45.8654C19.3821 45.123 18.7696 44.2042 18.1283 43.3039C18.0708 43.2204 18.0038 43.1276 17.9081 42.9884C17.42 43.703 16.951 44.3712 16.4054 44.9838C16.2618 45.1508 16.1087 45.29 15.9077 45.4014C15.3717 45.6891 15.1898 45.6798 14.8453 45.1786C14.2614 44.3341 13.7158 43.4617 13.1511 42.6079C12.864 42.181 12.7108 41.6891 12.3471 41.2807C12.127 41.5963 12.0791 41.9582 11.859 42.2552C11.4474 42.8213 10.8444 42.8863 10.251 42.8306C9.72456 42.7842 9.5427 42.2923 9.41827 41.8654C9.15984 41.0023 9.03542 40.1206 8.97799 39.2204C8.9397 38.6914 8.42284 38.2738 7.8677 38.3109C7.56142 38.3295 7.5997 38.0882 7.5997 37.9304C7.58056 37.0487 7.58056 36.167 7.64756 35.2947C7.85813 32.3341 8.4037 29.4199 9.02584 26.5244C9.13113 26.0139 9.26513 25.5035 9.41827 24.993C9.51399 24.6868 9.39913 24.6125 9.10241 24.5476C7.1977 24.1206 5.26427 23.8051 3.4457 23.0626C2.5747 22.71 1.74199 22.3202 1.01456 21.7169C-0.162725 20.7517 -0.296724 19.3967 0.679561 18.2367C1.29213 17.587 1.57927 17.2715 2.92885 16.9095C2.6417 16.5012 2.33542 16.1114 2.06742 15.703C0.794418 13.7355 0.631704 11.5824 0.957132 9.36427C1.28256 7.14617 2.1727 5.12297 3.47442 3.2761C4.05827 2.45011 4.68042 1.64269 5.30256 0.844545C5.86727 0.120647 6.36499 -0.0185644 7.30299 0.334104C7.81984 0.528999 8.15484 1.17865 8.04956 1.89327C7.81027 3.49884 7.67627 5.11369 7.65713 6.73782C7.65713 7.04408 7.67627 7.35963 7.69542 7.66589C7.78156 8.65893 8.15484 9.07656 9.28427 9.35499C10.0787 9.54988 10.9018 9.47563 11.7154 9.42923C11.8207 9.41995 11.8973 9.40139 11.9547 9.30858C12.7683 7.98144 14.204 7.57308 15.544 7.02552C17.0276 6.42227 18.5877 6.03248 20.2148 5.59628C19.9564 5.37355 19.7458 5.19721 19.5448 5.0116C19.0854 4.60324 19.1333 3.95359 19.4396 3.47099C19.7458 2.97912 20.3584 2.72854 20.9423 2.99768C21.6123 3.30394 22.2248 3.69373 22.7321 4.21345C23.0671 4.55684 23.4213 4.53828 23.9094 4.529C23.0384 3.89791 21.775 2.41299 21.775 2.41299C21.3921 1.95823 21.574 1.18793 21.9951 0.798141C22.4163 0.417631 23.182 0.148489 23.5936 0.575403C24.1296 1.14153 24.6464 1.72622 25.2111 2.2645C26.1587 3.16473 27.1446 4.00928 28.4558 4.39907C28.5324 4.41763 28.5994 4.43619 28.81 4.4826C28.2931 3.87007 27.8624 3.35963 27.4317 2.8399C27.135 2.49652 27.068 2.41299 26.7521 1.89327C26.4363 1.36427 26.4363 0.714614 27.1254 0.259858C27.8146 -0.194898 28.5324 0.0835238 28.8865 0.519719C29.6905 1.53132 30.5616 2.49652 31.4038 3.48028C31.959 4.12993 32.5141 4.78886 33.0597 5.44779C33.1841 5.59628 33.3468 5.63341 33.5191 5.67053C35.2994 6.08816 37.0797 6.49652 38.7834 7.16473C39.999 7.64733 41.1763 8.17633 41.9898 9.24362C42.1047 9.39211 42.2483 9.44779 42.4397 9.44779C43.1575 9.43851 43.8754 9.43851 44.5837 9.3457C45.694 9.20649 46.2587 8.49188 46.2874 7.23898C46.3257 5.45707 46.163 3.69373 45.9141 1.93039C45.7897 1.04872 46.2204 0.436192 47.0723 0.148489C47.57 -0.0185644 47.9528 0.185612 48.2783 0.482596C49.0535 1.17865 49.6374 2.0232 50.2308 2.86775C50.9104 3.84222 51.5421 4.83526 52.0015 5.93039C53.1788 8.73318 53.5904 11.5731 52.4801 14.4687Z" fill="#303031"/>
<path d="M22.7129 20.9652C23.2298 21.5406 23.5839 21.6613 24.3114 20.9838C24.9431 20.3991 25.2877 19.6195 25.7567 18.9327C25.7758 18.9049 25.7758 18.877 25.7949 18.8492C26.1204 18.2552 26.1778 18.2552 26.5607 18.8028C26.9914 19.4339 27.2785 20.1485 27.7571 20.7517C28.4462 21.6241 29.1354 21.5963 29.7575 20.6961C30.6572 19.3875 31.5186 18.051 32.5045 16.7981C32.7055 16.5476 32.8204 16.5476 33.0692 16.7239C34.0455 17.4292 34.8878 18.2738 35.7875 19.0441C36.7734 19.8886 37.7305 20.7796 38.6876 21.6613C38.8982 21.8562 39.1184 21.8747 39.3864 21.884C39.7692 21.9026 40.1999 21.6984 40.5062 21.9304C40.7934 22.1439 40.6689 22.5986 40.7838 22.9327C41.2528 24.2506 41.5399 25.6149 41.8558 26.9698C42.3344 29.0302 42.8129 31.0998 42.7938 33.2343C42.7842 34.5522 42.4588 35.833 42.2674 37.1323C42.2482 37.2436 42.2386 37.3457 42.2195 37.4478C42.1908 37.6427 42.2482 37.9211 42.0281 37.9675C41.8271 38.0139 41.6931 37.7726 41.5591 37.6241C41.3198 37.355 41.2241 36.993 40.9752 36.7239C40.6211 36.3434 40.2382 36.3341 39.8936 36.7332C39.7214 36.9374 39.5874 37.1601 39.5012 37.4107C39.0514 38.6172 38.5919 39.8144 38.1229 41.0487C37.7592 40.826 37.5008 40.5197 37.2328 40.232C36.9169 39.8979 36.6202 39.5545 36.2852 39.2575C35.7396 38.7657 34.8878 38.7935 34.4092 39.3504C33.8349 40.0093 33.3946 40.7703 33.0022 41.5499C32.8586 41.819 32.7534 41.8376 32.5906 41.5963C32.5045 41.4664 32.4184 41.3364 32.3227 41.2158C31.6527 40.3991 30.9731 40.297 29.9394 40.6589C28.9152 41.0209 28.1974 41.7726 27.5465 42.5893C27.0871 43.1647 27.0488 43.1833 26.5319 42.71C26.0342 42.2552 25.5748 41.7633 25.0867 41.2993C24.7899 41.0116 24.4071 40.8353 24.0434 40.6497C23.3351 40.2877 22.4162 40.4733 21.7462 41.058C20.9709 41.7448 20.9231 41.7355 20.3967 40.8167C20.1765 40.4362 19.9468 40.065 19.7267 39.6937C19.2098 38.8399 18.2239 38.7007 17.4582 39.3596C16.9797 39.7773 16.6064 40.2784 16.2044 40.761C15.8789 41.1415 15.8598 41.1601 15.6397 40.6868C15.1132 39.5638 14.6442 38.413 14.3571 37.2065C14.1944 36.5197 14.0604 36.4548 13.3617 36.6961C12.7491 36.9095 12.3375 37.3643 11.9642 37.8469C11.8685 37.9675 11.7824 38.0975 11.6388 38.3109C11.5718 37.522 11.5622 36.826 11.3899 36.1392C10.7678 33.6798 10.9592 31.2483 11.5048 28.7981C11.9929 26.6079 12.4907 24.4269 13.1319 22.2738C13.2277 21.9397 13.2755 21.652 13.7732 21.9582C14.1561 22.1903 14.4911 21.819 14.7591 21.587C15.4865 20.9745 16.1757 20.3063 16.8839 19.6659C17.9177 18.7285 18.9609 17.8005 19.9947 16.8631C20.1574 16.7146 20.2339 16.7796 20.3105 16.9281" fill="#CE9268"/>
<path d="M38.9461 10.9142C39.195 11.1276 39.128 11.3689 39.0993 11.5917C38.9366 13.4014 38.8121 15.2204 38.5346 17.0209C38.525 17.1044 38.5441 17.2065 38.391 17.3086C38.1134 17.058 37.8358 16.7981 37.5487 16.5383C36.1896 15.3318 34.84 14.1067 33.4617 12.9188C32.7247 12.2784 31.5953 12.5197 31.1358 13.3828C30.6668 14.2645 29.9873 15.0162 29.4704 15.8608C29.2407 16.232 29.078 16.1485 28.877 15.833C28.609 15.406 28.2644 15.0255 27.8433 14.7564C26.9531 14.1995 25.9577 14.3109 25.1729 15.0255C24.7421 15.4153 24.3114 15.8051 23.9477 16.2599C23.7563 16.5012 23.651 16.4919 23.4883 16.2135C22.9714 15.3318 22.4163 14.4594 21.8707 13.587C21.708 13.3179 21.4974 13.0859 21.2581 12.8817C20.703 12.3991 20.2627 12.4084 19.7459 12.9281C18.6643 14.0232 17.5444 15.0719 16.3863 16.0928C16.1183 16.3248 15.8407 16.5476 15.4961 16.8353C15.4291 16.1856 15.3621 15.6102 15.3143 15.0348C15.209 13.819 15.0176 12.6218 14.9601 11.3968C14.9506 11.1555 14.9793 10.9884 15.2473 10.8863C17.2094 10.1624 19.1429 9.34571 21.1624 8.76103C22.5407 8.36196 23.9573 8.16706 25.3834 7.98145C25.6514 7.94432 25.8237 7.92576 25.9099 7.59165C26.0917 6.88632 27.3073 6.45012 27.9868 6.78423C28.1783 6.87704 28.2548 6.98841 28.0921 7.17402C27.939 7.33179 27.805 7.49885 27.6614 7.6659C27.2498 8.13922 27.1924 8.69606 27.4317 9.23435C27.6614 9.75407 28.1687 9.85616 28.7238 9.82831C29.1737 9.80047 29.6427 9.75407 30.0064 9.51277C30.9253 8.90952 31.9398 8.98377 32.9161 9.12298C34.8783 9.4014 36.7447 10.0418 38.6016 10.6914C38.726 10.7193 38.8121 10.8214 38.9461 10.9142Z" fill="#CE9268"/>
<path d="M46.8617 11.8608C48.6898 10.8028 49.2641 9.16009 49.3024 7.25753C49.3024 7.11832 49.5034 7.09976 49.5417 7.22969C49.6852 7.73085 49.8384 8.24129 49.9437 8.75173C50.1925 9.95823 50.3361 11.1647 50.0968 12.4176C49.6087 14.9234 48.1825 16.0557 45.8184 16.7053C44.6124 17.0394 43.3777 17.058 42.143 17.1322C41.808 17.1508 41.7027 17.0858 41.7792 16.7239C42.0377 15.5267 42.0377 14.3016 42.2004 13.0951C42.2387 12.7981 42.3344 12.7146 42.6311 12.7053C43.7988 12.6496 44.9857 12.6311 46.096 12.1949C46.3448 12.1114 46.5937 12.0093 46.8617 11.8608Z" fill="#FBFBFB"/>
<path d="M5.37908 19.6288C6.37451 19.6009 7.33165 19.6195 8.27922 19.6752C9.0258 19.7216 9.77237 19.8051 10.5477 19.8794C10.7104 19.8979 10.8061 20.065 10.7295 20.2042C10.5764 20.5104 10.4328 20.7889 10.3084 21.0766C10.2031 21.3086 10.0308 21.3364 9.81065 21.3271C9.0258 21.29 8.26008 21.1508 7.49437 21.0116C6.32665 20.7889 5.14937 20.5661 4.03908 20.1392C3.96251 20.1114 3.88594 20.0835 3.80937 20.0557C3.65623 19.9907 3.68494 19.768 3.84765 19.7401C4.36451 19.6473 4.86223 19.6288 5.37908 19.6288Z" fill="#CE9268"/>
<path d="M22.2153 20.2506C22.2057 20.2599 22.1962 20.362 22.1962 20.362C22.1962 20.362 22.2345 20.2413 22.2153 20.2506Z" fill="#A7784E"/>
<path d="M37.3477 34.2645C36.5437 36.2413 35.1367 37.5777 33.1362 38.348C31.6335 38.9327 30.0734 39.174 28.4654 39.1369C26.7808 39.0998 25.0771 39.2668 23.4021 39.0162C20.9518 38.6543 18.7983 37.7169 17.4008 35.6288C15.6684 33.0394 16.0608 29.7355 18.291 27.536C19.8415 26.0139 21.7367 25.2343 23.9381 25.2158C25.9481 25.1972 27.9581 25.1879 29.9681 25.2158C32.2078 25.2529 34.1795 25.9768 35.7492 27.5731C37.6252 29.4942 38.1038 31.7216 37.3477 34.2645Z" fill="#303031"/>
<path d="M20.3297 29.6612C21.4879 28.5568 22.8949 28.1392 24.4359 28.1206C26.1683 28.1021 27.9103 28.0835 29.6523 28.1206C31.1359 28.1485 32.495 28.5476 33.5862 29.6148C35.0889 31.0905 35.108 33.6984 32.9544 35.0441C31.9016 35.703 30.753 36.0371 29.5374 36.065C27.5657 36.1114 25.5844 36.232 23.6223 35.9814C22.311 35.8144 21.0667 35.3689 20.2053 34.3202C19.028 32.8909 19.0855 31.2297 20.3297 29.6612Z" fill="#FCFCFC"/>
<path d="M50.0107 19.7401C50.1735 19.768 50.2118 19.9907 50.049 20.0557C49.9725 20.0928 49.8959 20.1114 49.8193 20.1392C48.6995 20.5661 47.5317 20.7889 46.364 21.0116C45.5983 21.1508 44.8326 21.29 44.0478 21.3271C43.8276 21.3364 43.6458 21.3086 43.55 21.0766C43.4256 20.7889 43.282 20.5104 43.1289 20.2042C43.0619 20.065 43.1576 19.8979 43.3108 19.8794C44.086 19.8051 44.8326 19.7216 45.5792 19.6752C46.5268 19.6195 47.4839 19.6009 48.4793 19.6288C49.0057 19.6288 49.5035 19.6473 50.0107 19.7401Z" fill="#CE9268"/>
<path d="M31.1358 30.645C31.9781 30.645 32.6577 31.304 32.6577 32.1207C32.6577 32.9374 31.9781 33.587 31.1358 33.587C30.2935 33.587 29.6235 32.9281 29.6235 32.1207C29.6235 31.3132 30.3031 30.645 31.1358 30.645Z" fill="#353434"/>
<path d="M22.6556 30.645C23.4979 30.645 24.1679 31.304 24.1679 32.1207C24.1679 32.9374 23.4883 33.587 22.6556 33.587C21.8229 33.587 21.1433 32.9281 21.1433 32.1207C21.1433 31.3132 21.8229 30.645 22.6556 30.645Z" fill="#353434"/>
<path d="M33.5574 24.0093C34.9054 24.0093 35.9981 22.9497 35.9981 21.6427C35.9981 20.3357 34.9054 19.2761 33.5574 19.2761C32.2094 19.2761 31.1167 20.3357 31.1167 21.6427C31.1167 22.9497 32.2094 24.0093 33.5574 24.0093Z" fill="#303031"/>
<path d="M20.2531 24.0093C21.6011 24.0093 22.6938 22.9497 22.6938 21.6427C22.6938 20.3357 21.6011 19.2761 20.2531 19.2761C18.9051 19.2761 17.8124 20.3357 17.8124 21.6427C17.8124 22.9497 18.9051 24.0093 20.2531 24.0093Z" fill="#303031"/>
<path d="M8.00168 11.8422C9.12153 12.2784 10.2988 12.297 11.4665 12.3527C11.7632 12.3712 11.859 12.4455 11.8972 12.7425C12.06 13.949 12.06 15.174 12.3184 16.3712C12.395 16.7332 12.2897 16.7981 11.9547 16.7796C10.72 16.6961 9.48525 16.6868 8.27925 16.3527C5.9151 15.6937 4.47939 14.5708 4.00082 12.065C3.76153 10.8121 3.90511 9.61485 4.15396 8.39907C4.25925 7.88863 4.41239 7.37819 4.55596 6.87703C4.59425 6.7471 4.79525 6.77494 4.79525 6.90487C4.83353 8.80742 5.40782 10.4501 7.23596 11.5081C7.50396 11.6473 7.75282 11.7494 8.00168 11.8422Z" fill="#FBFBFB"/>
</g>
<defs>
<clipPath id="clip0_57_915">
<rect width="53.8775" height="48" fill="white"/>
</clipPath>
</defs>
</svg>
