<svg width="128" height="32" viewBox="0 0 128 32" fill="none" xmlns="http://www.w3.org/2000/svg">
<path d="M8.22321 20.4009C8.06264 21.4471 8.02824 22.1521 8.11999 22.516C8.21174 22.8571 8.5214 23.0505 9.04897 23.096L12.6273 23.4712L12.3864 25.4158H0L0.240847 23.5053L1.41068 23.403C1.70887 23.3575 1.93825 23.2893 2.09881 23.1983C2.28231 23.0846 2.43141 22.9254 2.5461 22.7207C2.66079 22.516 2.75254 22.2544 2.82135 21.936C2.9131 21.5949 2.99338 21.1514 3.0622 20.6055L5.1266 5.52665C5.26423 4.52594 5.2757 3.83227 5.16101 3.44563C5.04632 3.05899 4.70225 2.83156 4.12881 2.76333L3.09661 2.62687L3.33745 0.716419H20.4376L19.8527 7.50533L16.8937 7.36887L16.5496 5.01493C16.4349 4.37811 16.2285 3.93461 15.9303 3.68444C15.6551 3.43426 15.1848 3.30917 14.5196 3.30917H10.5973L9.42744 11.838H16.9281L16.584 14.5672H9.01456L8.22321 20.4009Z" fill="#FCFCFC"/>
<path d="M25.6758 20.8443C25.584 21.4357 25.6184 21.8905 25.779 22.209C25.9395 22.5046 26.2951 22.6525 26.8456 22.6525C27.0291 22.6525 27.247 22.6411 27.4993 22.6183C27.7516 22.5729 27.9925 22.5274 28.2218 22.4819L28.7035 24.7335C28.1989 25.0519 27.5337 25.3134 26.708 25.5181C25.9051 25.7228 25.1138 25.8252 24.3339 25.8252C23.6228 25.8252 23.0264 25.7342 22.5447 25.5522C22.063 25.3703 21.6731 25.1201 21.3749 24.8017C21.0767 24.4833 20.8588 24.1194 20.7212 23.71C20.5836 23.2779 20.5147 22.8344 20.5147 22.3795C20.5147 22.2431 20.5262 22.0498 20.5491 21.7996C20.5721 21.5267 20.595 21.3333 20.618 21.2196L23.0264 5.97015C23.0723 5.65174 23.1182 5.33333 23.1641 5.01493C23.2099 4.67377 23.2329 4.41222 23.2329 4.23028C23.2329 3.8209 23.1411 3.51386 22.9576 3.30917C22.7741 3.10448 22.3842 2.9339 21.7878 2.79744L20.6524 2.52452L21.1341 0.682304L28.0154 0L28.7379 0.409382L25.6758 20.8443Z" fill="#FCFCFC"/>
<path d="M45.6768 20.8785C45.5851 21.4471 45.608 21.8792 45.7456 22.1748C45.8833 22.4705 46.2273 22.6297 46.7778 22.6525C46.9384 22.6525 47.1448 22.6411 47.3971 22.6183C47.6724 22.5956 47.9362 22.5615 48.1885 22.516L48.6702 24.7335C48.1885 25.0291 47.5233 25.2793 46.6746 25.484C45.8488 25.7114 45.069 25.8252 44.3349 25.8252C43.4174 25.8252 42.6261 25.6318 41.9609 25.2452C41.3186 24.8586 40.9287 24.2104 40.7911 23.3006C40.1947 23.9602 39.4836 24.5515 38.6578 25.0746C37.855 25.575 36.8228 25.8252 35.5612 25.8252C34.5978 25.8252 33.7491 25.666 33.0151 25.3475C32.3041 25.0064 31.7077 24.5402 31.226 23.9488C30.7672 23.3575 30.4117 22.6525 30.1594 21.8337C29.93 21.0149 29.8153 20.1279 29.8153 19.1727C29.8153 17.1258 30.0676 15.3518 30.5723 13.8507C31.0769 12.3497 31.7421 11.1102 32.5678 10.1322C33.3936 9.13149 34.3226 8.39233 35.3548 7.91471C36.387 7.4371 37.4307 7.19829 38.4858 7.19829C39.4033 7.19829 40.1717 7.38024 40.7911 7.74414C41.4333 8.10803 42.0068 8.59702 42.5114 9.21109L43.2339 7.47122L43.75 7.23241L47.8788 8.1194L47.0187 11.6674L45.6768 20.8785ZM42.0297 11.5309C41.181 10.8714 40.3208 10.5416 39.4492 10.5416C38.7152 10.5416 38.0729 10.769 37.5224 11.2239C36.9948 11.656 36.5476 12.2473 36.1806 12.9979C35.8136 13.7257 35.5383 14.5785 35.3548 15.5565C35.1942 16.5117 35.1139 17.5238 35.1139 18.5928C35.1139 19.8209 35.3319 20.7647 35.7677 21.4243C36.2035 22.0611 36.8572 22.3795 37.7289 22.3795C38.2106 22.3795 38.6922 22.2886 39.1739 22.1066C39.6786 21.9247 40.1373 21.6745 40.5502 21.3561L42.0297 11.5309Z" fill="#FCFCFC"/>
<path d="M65.344 12.6908C65.344 13.6915 65.149 14.624 64.7591 15.4883C64.3921 16.3298 63.8531 17.0689 63.142 17.7058C62.4309 18.3198 61.5707 18.8088 60.5615 19.1727C59.5751 19.5139 58.4627 19.6844 57.224 19.6844C56.146 19.6844 55.1367 19.5139 54.1962 19.1727C54.0357 19.6048 54.0127 19.9687 54.1274 20.2644C54.2421 20.5601 54.4944 20.8102 54.8844 21.0149C55.2743 21.1969 55.8133 21.3561 56.5015 21.4925C57.1896 21.629 58.0154 21.7655 58.9788 21.9019C60.0569 22.0611 60.9744 22.2431 61.7313 22.4478C62.5112 22.6297 63.142 22.8685 63.6237 23.1642C64.1283 23.4598 64.4953 23.8237 64.7247 24.2559C64.977 24.6652 65.1032 25.177 65.1032 25.791C65.1032 26.4733 64.8967 27.1784 64.4838 27.9062C64.0939 28.6567 63.4746 29.3276 62.6259 29.919C61.7772 30.533 60.6991 31.0334 59.3916 31.42C58.1071 31.8067 56.5818 32 54.8156 32C52.453 32 50.7326 31.6588 49.6546 30.9765C48.5994 30.317 48.0718 29.4186 48.0718 28.2815C48.0718 27.4854 48.3356 26.7463 48.8632 26.064C49.3908 25.3817 50.2395 24.6766 51.4093 23.9488C50.6523 23.3575 50.2739 22.5387 50.2739 21.4925C50.2739 20.9012 50.4459 20.3326 50.79 19.7868C51.134 19.2182 51.5928 18.6496 52.1662 18.081C51.6387 17.6262 51.2143 17.0917 50.8932 16.4776C50.5721 15.8635 50.4115 15.1585 50.4115 14.3625C50.4115 13.2935 50.6179 12.3156 51.0308 11.4286C51.4666 10.5416 52.0516 9.79105 52.7856 9.17697C53.5425 8.54016 54.4256 8.05117 55.4349 7.71002C56.4441 7.36887 57.5222 7.19829 58.6691 7.19829C60.4124 7.19829 61.8919 7.63042 63.1076 8.49467C63.2681 8.17626 63.3484 7.90334 63.3484 7.67591C63.3484 7.44847 63.2911 7.24378 63.1764 7.06183C63.0158 6.78891 62.775 6.58422 62.4539 6.44776C62.1327 6.3113 61.7772 6.19758 61.3872 6.10661L62.3162 4.12793C63.6237 4.17342 64.7018 4.4236 65.5505 4.87846C66.3991 5.33333 66.8235 6.01564 66.8235 6.92537C66.8235 7.42573 66.64 7.91471 66.273 8.39233C65.9289 8.86994 65.3669 9.40441 64.5871 9.99574C65.0917 10.7918 65.344 11.6901 65.344 12.6908ZM60.5959 12.5885C60.5959 10.7008 59.8504 9.75693 58.3595 9.75693C57.4419 9.75693 56.6735 10.1436 56.0542 10.9168C55.4578 11.6901 55.1596 12.85 55.1596 14.3966C55.1596 15.2381 55.3546 15.8863 55.7445 16.3412C56.1574 16.796 56.7194 17.0235 57.4305 17.0235C58.3709 17.0235 59.1279 16.6709 59.7013 15.9659C60.2977 15.2608 60.5959 14.135 60.5959 12.5885ZM55.6757 25.484C55.3317 25.4158 55.0105 25.3475 54.7123 25.2793C54.4141 25.1883 54.1274 25.1087 53.8522 25.0405C52.7741 25.9048 52.2351 26.7122 52.2351 27.4627C52.2351 28.0768 52.5218 28.5544 53.0952 28.8955C53.6687 29.2367 54.483 29.4072 55.5381 29.4072C56.9832 29.4072 58.0842 29.1457 58.8411 28.6226C59.5981 28.1222 59.9766 27.6105 59.9766 27.0874C59.9766 26.8145 59.8963 26.6098 59.7357 26.4733C59.5981 26.3369 59.3572 26.2232 59.0132 26.1322C58.6691 26.0412 58.2218 25.9502 57.6713 25.8593C57.1208 25.7683 56.4556 25.6432 55.6757 25.484Z" fill="#FCFCFC"/>
<path d="M75.5698 15.7953L70.9937 5.56077C70.5579 4.53731 70.2024 3.84364 69.9271 3.47975C69.6748 3.09311 69.3192 2.8543 68.8605 2.76333L68.0691 2.62687L68.3444 0.716419H78.5288L78.2535 2.62687L75.6042 2.96802L79.4922 12.452H79.6298L85.651 2.9339L83.2425 2.62687L83.5178 0.716419H91.3625L91.0872 2.62687L90.1927 2.6951C89.8945 2.74058 89.6307 2.82019 89.4013 2.9339C89.1949 3.04762 88.9999 3.20682 88.8164 3.41151C88.6329 3.59346 88.4379 3.83227 88.2315 4.12793C88.048 4.4236 87.8301 4.77612 87.5778 5.1855L80.7996 15.42L80.0083 21.2196C79.8936 21.9474 79.8821 22.4591 79.9739 22.7548C80.0885 23.0277 80.3638 23.1869 80.7996 23.2324L83.7242 23.5053L83.4833 25.4158H70.2712L70.4776 23.5053L73.3678 23.2324C73.7577 23.1869 74.0674 23.0163 74.2968 22.7207C74.5491 22.4023 74.7326 21.8678 74.8473 21.1173L75.5698 15.7953Z" fill="#FCFCFC"/>
<path d="M104.789 20.8785C104.697 21.4471 104.72 21.8792 104.858 22.1748C104.995 22.4705 105.339 22.6297 105.89 22.6525C106.05 22.6525 106.257 22.6411 106.509 22.6183C106.784 22.5956 107.048 22.5615 107.301 22.516L107.782 24.7335C107.301 25.0291 106.635 25.2793 105.787 25.484C104.961 25.7114 104.181 25.8252 103.447 25.8252C102.53 25.8252 101.738 25.6318 101.073 25.2452C100.431 24.8586 100.041 24.2104 99.9031 23.3006C99.3068 23.9602 98.5957 24.5515 97.7699 25.0746C96.9671 25.575 95.9349 25.8252 94.6733 25.8252C93.7099 25.8252 92.8612 25.666 92.1272 25.3475C91.4162 25.0064 90.8198 24.5402 90.3381 23.9488C89.8793 23.3575 89.5238 22.6525 89.2715 21.8337C89.0421 21.0149 88.9274 20.1279 88.9274 19.1727C88.9274 17.1258 89.1797 15.3518 89.6843 13.8507C90.189 12.3497 90.8542 11.1102 91.6799 10.1322C92.5057 9.13149 93.4347 8.39233 94.4669 7.91471C95.4991 7.4371 96.5428 7.19829 97.5979 7.19829C98.5154 7.19829 99.2838 7.38024 99.9031 7.74414C100.545 8.10803 101.119 8.59702 101.623 9.21109L102.346 7.47122L102.862 7.23241L106.991 8.1194L106.131 11.6674L104.789 20.8785ZM101.142 11.5309C100.293 10.8714 99.4329 10.5416 98.5613 10.5416C97.8273 10.5416 97.185 10.769 96.6345 11.2239C96.1069 11.656 95.6596 12.2473 95.2926 12.9979C94.9256 13.7257 94.6504 14.5785 94.4669 15.5565C94.3063 16.5117 94.226 17.5238 94.226 18.5928C94.226 19.8209 94.4439 20.7647 94.8798 21.4243C95.3156 22.0611 95.9693 22.3795 96.8409 22.3795C97.3226 22.3795 97.8043 22.2886 98.286 22.1066C98.7907 21.9247 99.2494 21.6745 99.6623 21.3561L101.142 11.5309Z" fill="#FCFCFC"/>
<path d="M114.409 25.2452L109.696 25.5864L109.214 25.2452L111.898 7.06183C111.966 6.60697 112.035 6.10661 112.104 5.56077C112.173 5.01493 112.207 4.63966 112.207 4.43497C112.207 4.04833 112.116 3.70718 111.932 3.41151C111.749 3.11585 111.37 2.89979 110.797 2.76333L109.661 2.49041L110.143 0.682304L117.093 0L117.816 0.409382L115.614 15.3177C116.439 14.9765 117.242 14.624 118.022 14.2601C118.802 13.8962 119.49 13.5323 120.086 13.1684C120.706 12.7818 121.199 12.3952 121.566 12.0085C121.933 11.5991 122.116 11.2125 122.116 10.8486C122.116 10.4392 121.944 10.2004 121.6 10.1322C121.279 10.0412 120.798 10.0526 120.155 10.1663L119.846 8.18763C120.442 7.91471 121.061 7.68728 121.704 7.50533C122.369 7.30064 123.034 7.19829 123.699 7.19829C124.502 7.19829 125.19 7.38024 125.764 7.74414C126.36 8.08529 126.658 8.69936 126.658 9.58635C126.658 10.678 126.165 11.7356 125.179 12.7591C124.192 13.7598 122.816 14.7377 121.05 15.693L122.839 20.2644C123.045 20.7875 123.286 21.2424 123.562 21.629C123.86 21.9929 124.307 22.1748 124.903 22.1748C125.316 22.1748 125.683 22.1066 126.004 21.9701C126.348 21.8337 126.681 21.6631 127.002 21.4584L128 23.5394C127.794 23.7441 127.53 23.9829 127.209 24.2559C126.888 24.506 126.509 24.7562 126.073 25.0064C125.637 25.2338 125.156 25.4272 124.628 25.5864C124.101 25.7456 123.539 25.8252 122.942 25.8252C121.795 25.8252 120.866 25.5295 120.155 24.9382C119.444 24.3468 118.825 23.3461 118.297 21.936L116.749 17.6716C116.497 17.7854 116.244 17.8877 115.992 17.9787C115.763 18.0697 115.522 18.1606 115.27 18.2516L114.409 25.2452Z" fill="#FCFCFC"/>
</svg>
