<svg width="552" height="416" viewBox="0 0 552 416" fill="none" xmlns="http://www.w3.org/2000/svg">
<g filter="url(#filter0_d_173_1264)">
<rect x="4" width="544" height="407.186" fill="#D9D9D9"/>
</g>
<path d="M235.281 139.212C237.783 137.058 240.459 135.042 243.308 133.166C246.227 131.29 249.354 129.657 252.689 128.267C256.095 126.877 259.743 125.8 263.635 125.035C267.596 124.201 271.835 123.784 276.352 123.784C282.606 123.784 288.27 124.653 293.343 126.39C298.416 128.058 302.759 130.491 306.373 133.687C309.986 136.814 312.766 140.602 314.712 145.049C316.727 149.497 317.735 154.466 317.735 159.956C317.735 165.237 316.971 169.824 315.442 173.715C313.982 177.537 312.106 180.873 309.813 183.722C307.589 186.571 305.122 189.038 302.412 191.123C299.702 193.208 297.13 195.154 294.698 196.961C292.266 198.767 290.146 200.574 288.339 202.381C286.602 204.118 285.525 206.064 285.108 208.218L282.502 223.125H262.801L260.82 206.238C260.334 202.902 260.751 200.018 262.071 197.586C263.391 195.084 265.163 192.826 267.387 190.81C269.611 188.726 272.078 186.745 274.788 184.869C277.568 182.923 280.139 180.873 282.502 178.719C284.934 176.495 286.95 174.028 288.548 171.318C290.216 168.538 291.05 165.272 291.05 161.519C291.05 156.933 289.451 153.284 286.255 150.574C283.127 147.864 278.958 146.509 273.746 146.509C269.924 146.509 266.692 146.926 264.052 147.76C261.48 148.593 259.257 149.532 257.38 150.574C255.504 151.547 253.906 152.45 252.585 153.284C251.265 154.118 250.014 154.535 248.833 154.535C246.192 154.535 244.211 153.388 242.891 151.095L235.281 139.212ZM254.774 261.589C254.774 259.296 255.191 257.142 256.025 255.126C256.929 253.041 258.145 251.269 259.674 249.81C261.202 248.281 262.974 247.1 264.99 246.266C267.075 245.362 269.333 244.911 271.765 244.911C274.128 244.911 276.352 245.362 278.437 246.266C280.521 247.1 282.328 248.281 283.857 249.81C285.386 251.269 286.567 253.041 287.401 255.126C288.305 257.142 288.756 259.296 288.756 261.589C288.756 263.952 288.305 266.141 287.401 268.156C286.567 270.171 285.386 271.944 283.857 273.472C282.328 274.932 280.521 276.078 278.437 276.912C276.352 277.746 274.128 278.163 271.765 278.163C269.333 278.163 267.075 277.746 264.99 276.912C262.974 276.078 261.202 274.932 259.674 273.472C258.145 271.944 256.929 270.171 256.025 268.156C255.191 266.141 254.774 263.952 254.774 261.589Z" fill="#303031"/>
<defs>
<filter id="filter0_d_173_1264" x="0" y="0" width="552" height="415.186" filterUnits="userSpaceOnUse" color-interpolation-filters="sRGB">
<feFlood flood-opacity="0" result="BackgroundImageFix"/>
<feColorMatrix in="SourceAlpha" type="matrix" values="0 0 0 0 0 0 0 0 0 0 0 0 0 0 0 0 0 0 127 0" result="hardAlpha"/>
<feOffset dy="4"/>
<feGaussianBlur stdDeviation="2"/>
<feComposite in2="hardAlpha" operator="out"/>
<feColorMatrix type="matrix" values="0 0 0 0 0 0 0 0 0 0 0 0 0 0 0 0 0 0 0.25 0"/>
<feBlend mode="normal" in2="BackgroundImageFix" result="effect1_dropShadow_173_1264"/>
<feBlend mode="normal" in="SourceGraphic" in2="effect1_dropShadow_173_1264" result="shape"/>
</filter>
</defs>
</svg>
