<svg width="43" height="43" viewBox="0 0 43 43" fill="none" xmlns="http://www.w3.org/2000/svg">
<path d="M21.9832 0.991699C10.3853 0.991699 0.991577 10.3855 0.991577 21.9833C0.991577 33.5812 10.3853 42.975 21.9832 42.975C33.5811 42.975 42.9749 33.5812 42.9749 21.9833C42.9749 10.3855 33.5811 0.991699 21.9832 0.991699ZM21.9832 6.23961C23.715 6.23961 25.3419 6.71192 26.9163 7.23671C25.8142 8.2863 24.5547 9.23092 24.7646 10.1755C24.9745 11.1202 28.3857 10.8578 28.3857 12.7995C28.3857 14.2164 26.1816 14.6363 27.7034 16.2631C29.5402 18.0999 24.3448 21.4061 24.2398 23.8201C24.0824 28.1759 28.6481 28.9106 32.2691 28.9106C34.4732 28.9106 35.0505 29.9602 34.8931 31.2197C32.0592 35.2606 27.2311 37.7796 21.9307 37.7796C19.9365 37.7796 18.0998 37.3072 16.368 36.625C17.5225 34.3159 14.8985 29.7503 12.432 28.2808C11.225 27.0738 8.65353 27.5461 7.18411 26.9689C6.7118 25.5519 6.23949 24.135 6.18701 22.5606C6.34445 22.2982 6.60684 22.0883 7.02667 22.0883C8.02378 22.0883 9.38823 24.0825 10.1229 23.8726C11.0676 23.6627 6.23949 16.9978 8.49609 15.6858C9.54567 15.0561 11.6448 17.7325 10.9626 14.8462C10.3329 12.1698 12.8519 13.3768 14.4262 12.6945C15.7907 12.1173 16.7878 10.5429 15.1085 9.59827C14.7936 9.44084 14.4262 9.07348 13.9539 8.60117C16.3155 7.18423 19.0444 6.29209 21.9832 6.29209V6.23961ZM34.1059 11.9598C35.0505 13.1144 35.7852 14.3739 36.415 15.7383V15.8958C36.2051 16.2631 35.8377 16.473 35.2604 17.0503C33.791 18.5197 33.5811 15.9482 32.9514 15.4235C32.2691 14.7937 29.8026 15.5284 29.4877 14.7412C29.1204 13.7966 32.1117 12.5371 34.1059 11.9598Z" fill="white"/>
</svg>
