<svg width="642" height="480" viewBox="0 0 642 480" fill="none" xmlns="http://www.w3.org/2000/svg">
<rect width="641.28" height="480" fill="#D9D9D9"/>
<path d="M272.64 164.106C275.589 161.567 278.743 159.191 282.102 156.979C285.543 154.767 289.229 152.842 293.161 151.204C297.175 149.565 301.476 148.296 306.063 147.394C310.733 146.411 315.73 145.92 321.055 145.92C328.428 145.92 335.104 146.944 341.084 148.992C347.064 150.958 352.184 153.825 356.444 157.594C360.704 161.28 363.981 165.745 366.275 170.987C368.65 176.23 369.838 182.088 369.838 188.559C369.838 194.785 368.937 200.192 367.135 204.779C365.415 209.285 363.203 213.217 360.499 216.576C357.878 219.935 354.97 222.843 351.775 225.3C348.58 227.758 345.549 230.052 342.682 232.182C339.815 234.312 337.316 236.442 335.186 238.571C333.138 240.619 331.868 242.913 331.377 245.453L328.305 263.025H305.08L302.746 243.118C302.172 239.186 302.664 235.786 304.22 232.919C305.777 229.97 307.866 227.307 310.487 224.932C313.109 222.474 316.017 220.139 319.212 217.928C322.488 215.634 325.52 213.217 328.305 210.678C331.172 208.056 333.548 205.148 335.432 201.953C337.398 198.676 338.381 194.826 338.381 190.402C338.381 184.996 336.497 180.695 332.728 177.5C329.042 174.305 324.127 172.708 317.983 172.708C313.477 172.708 309.668 173.199 306.555 174.182C303.524 175.165 300.903 176.271 298.691 177.5C296.479 178.647 294.595 179.712 293.038 180.695C291.482 181.678 290.007 182.17 288.615 182.17C285.502 182.17 283.167 180.818 281.61 178.114L272.64 164.106ZM295.619 308.367C295.619 305.664 296.11 303.124 297.093 300.749C298.158 298.291 299.592 296.202 301.394 294.482C303.196 292.68 305.285 291.287 307.661 290.304C310.119 289.239 312.781 288.706 315.648 288.706C318.433 288.706 321.055 289.239 323.512 290.304C325.97 291.287 328.1 292.68 329.902 294.482C331.704 296.202 333.097 298.291 334.08 300.749C335.145 303.124 335.678 305.664 335.678 308.367C335.678 311.153 335.145 313.733 334.08 316.109C333.097 318.484 331.704 320.573 329.902 322.376C328.1 324.096 325.97 325.448 323.512 326.431C321.055 327.414 318.433 327.905 315.648 327.905C312.781 327.905 310.119 327.414 307.661 326.431C305.285 325.448 303.196 324.096 301.394 322.376C299.592 320.573 298.158 318.484 297.093 316.109C296.11 313.733 295.619 311.153 295.619 308.367Z" fill="#303031"/>
</svg>
