<?xml version="1.0" encoding="utf-8"?>
<!-- Generator: Adobe Illustrator 22.0.0, SVG Export Plug-In . SVG Version: 6.00 Build 0)  -->
<svg version="1.1" id="flag-icons-np" xmlns="http://www.w3.org/2000/svg" xmlns:xlink="http://www.w3.org/1999/xlink" x="0px"
	 y="0px" viewBox="0 0 387 478.2" style="enable-background:new 0 0 387 478.2;" xml:space="preserve">
<style type="text/css">
	.st0{fill:#CE0000;}
	.st1{fill:#000063;}
	.st2{fill:#FFFFFF;}
</style>
<g transform="translate(0 15) scale(.9375)">
	<g>
		<g>
			<path class="st0" d="M7.1,486.8h371.7L135.6,240.1l252.5,0.3L7.2-2.8L7.1,486.8L7.1,486.8z"/>
			<path class="st1" d="M396.1,494H7.1v-7.2H0V-16l412.8,263.7l-260-0.3L396.1,494z M14.4,479.6h347.1L118.3,232.9l245,0.3
				L14.4,10.4V479.6z"/>
		</g>
		<path class="st2" d="M178.1,355.6l-26.5,8.8l20.8,19.4l-28-1.8l11.5,25.7l-25-12.1l0.5,28.1l-18.4-20.5l-10.5,26.1l-9-25.8
			l-19.9,20.2l1.8-27.2l-26.4,11.2l12.4-24.5l-28.8,0.6l21.1-18l-26.8-10.3l26.5-8.8l-20.9-19.4l27.9,1.8l-11.4-25.7l25.1,12.1
			l-0.5-28.1l18.4,20.5l10.5-26.1l8.9,25.8l20-20.2l-1.9,27.2l26.5-11.2L143.5,328l28.8-0.6l-21.1,18L178.1,355.6z M146.3,174.4
			l-11.1,8.2l5.5,4.5c12.9-9,23.3-21.2,30.1-35.3c1.8,20.9-17.4,67.7-67.4,68.2c-38.3,0.5-69.7-30.1-70.2-68.4c0-0.2,0-0.4,0-0.6
			c9.8,17.9,15.9,26.5,31.4,35.8l4.6-4.3l-10.4-8.7l13.4-3.5L65,158.1l14.1,1L77.4,145l12.4,7.3l3.9-13.2l8.8,10.6l8.3-10.1
			l4.5,13.7l11.6-8l-1.5,14l13.9-1.7l-6.6,13L146.3,174.4L146.3,174.4z"/>
	</g>
</g>
</svg>
